<?xml version="1.0" encoding="utf-8"?>
<!-- Generator: Adobe Illustrator 23.0.4, SVG Export Plug-In . SVG Version: 6.00 Build 0)  -->
<svg version="1.1" id="Слой_1" xmlns="http://www.w3.org/2000/svg" xmlns:xlink="http://www.w3.org/1999/xlink" x="0px" y="0px"
	 viewBox="0 0 569.4 1024" style="enable-background:new 0 0 569.4 1024;" xml:space="preserve">
<style type="text/css">
	.st0{fill:#8E8E8E;}
</style>
<path class="st0" d="M337.1,982.1c0,0-9.7-47.8-2.2-62.1c0,0,24.4-16,39.9-85.3c0,0,6.8-25.9,16.8-46c0,0,23.2-34.6-6.6-27.4
	c0,0-30.4,2.5-5.4-34.9c0,0,60.2-40.4,59.9-76.8c0,0-3.2-14.8-30.3-11.1c0,0-31.8,0.9-8.5-44c0,0,120.4-84.2,103.5-115.3
	c0,0-18.1-15.7-45.7-5.4c0,0-30-1.9,6.3-42c0,0,95.2-75.3,79.5-126.4c0,0-27.8-18.1-71.3,7.9c0,0-24.6,11.4-8.8-37.9
	c0,0,49-77.9,16.3-91c0,0-30.7,0.1-50.6,11c0,0-12-4.4-10.5-33.3c0,0,9-30.8-5-35.9c0,0-11.5,0.3-27.8,4.6c0,0-15.5,11.3-17.3-21.1
	c0,0,0.3-22.6-17.1-27.8c0,0-13.8,0.6-17.3,3.9c0,0-10.9,8-21.9-23.9c0,0-6.9-18.4-18.3-21.4c0,0-20.4-27.9-34.2,3.4
	c0,0-7.1,22.4-20.2,21c0,0-12.8,1-7.8,36.9c0,0,2.3,12.2-20.5,9.5c0,0-26.2-2.8-14.7,40c0,0,3.3,25-28.4,15.7
	c0,0-31.3-14.8-19.6,58.7c0,0,10.9,25.5-26.5,8.4c0,0-43.9-19.5-38.4,33.6c0,0,19.1,50.1,36.8,66.8c0,0,17.1,15.3-23.1,16.5
	c0,0-37.6-1.3-49.8,9c0,0-8.6,48.3,63.6,83.6c0,0,75.5,38.8,54.7,58.4c0,0-62.6,6.6-68.3,19.3c0,0-6.9,40.6,56.1,63.7
	c0,0,45,17.6,54.6,35.9c0,0,36.6,27.7,24.3,46.3c0,0-42.6,2.6-46.3,13.7c0,0,2.3,38.3,45,51.7c0,0,57,33.3,30.3,47.4
	c0,0-14.6,2.6-19.2,12.3c0,0-2.8,13.7,27.3,46.3c0,0,45.5,86.5,53.7,88.9c0,0-2.9,60.6-7.4,66.7
	C316.9,994.2,334.3,999.2,337.1,982.1z M328.3,897.7c-0.4,0-0.7-0.1-1-0.3c-2.1-0.8-3.5-2.9-3.1-5.2c2.7-19.5,2.3-68.3,0.1-132.5
	c-12.9-27.5-89.7-56.1-90.5-56.4c-0.9-0.3-1.5-1-1.2-2c0.3-0.9,1.2-1.1,2.2-0.7c0,0,0,0,0,0c3.1,1.1,69.2,25.4,89.1,52.1
	c-1.1-30.7-2.5-64.9-4.3-100.8C297.9,599,131,539.8,129.3,539.3c-0.9-0.3-1.4-1.4-1.1-2.3c0.3-0.9,1.3-1.4,2.3-1.1
	c0.4,0.2,44.2,15.5,89.5,37.4c52.9,25.6,86.2,49.1,99.2,70c-1.7-34.8-3.7-71.2-5.8-108c-33.1-54-214.6-148.9-216.5-149.9
	c-0.9-0.5-1.2-1.5-0.8-2.4c0.5-0.9,1.5-1.2,2.4-0.8c0.5,0.3,49.5,25.8,100.9,57.7c59.3,36.7,97.3,66.4,113.6,88.5
	c-3.9-66.6-8.1-134.1-12.1-194.9c-27.7-15.2-118-129-122-134c-0.6-0.8-0.5-1.9,0.3-2.5c0.8-0.6,1.9-0.5,2.5,0.3
	c0.9,1.2,90.2,113.7,118.9,132c-8.1-122.9-15-217.5-15.2-220c-0.2-2.7-0.8-13.5,1.9-13.7c2.7-0.2,3.8,5.1,4,7.8
	c0.5,6.5,3.5,45.4,7.8,102.9c17.9-22.3,32.8-88.6,32.9-89.3c0.2-1,1.2-1.6,2.1-1.3c1,0.2,1.6,1.2,1.3,2.1c-0.7,3-16.4,73.4-36,93.5
	c4.3,58.1,9.8,134.1,15.2,214.3C333.1,408.6,409.7,284.6,439,236c0.5-0.8,1.6-1.1,2.4-0.6c0.8,0.5,1.1,1.6,0.6,2.4
	c-4.4,7.4-107.5,178.2-127.2,191.9c1.8,27.4,3.7,55.2,5.4,83c32.3-54.6,177.7-178.5,184.3-184.1c0.7-0.6,1.9-0.5,2.5,0.2
	c0.6,0.7,0.5,1.9-0.2,2.5c-1.7,1.4-161.2,137.3-186.2,188c1.9,30.6,3.8,61.1,5.5,90.8c26.2-45.2,124-102.3,128.4-104.9
	c0.8-0.5,1.9-0.2,2.4,0.6c0.5,0.8,0.2,1.9-0.6,2.4c-1.1,0.6-109.4,63.9-129.8,108.7c3.9,68.7,6.9,132.6,8.3,182.4
	c11.7-12.4,34.3-23.1,35.6-23.7c0.9-0.4,1.9,0,2.4,0.8c0.4,0.9,0,1.9-0.8,2.4c-8.9,4.2-28.9,15.3-37,25.7
	c1.1,42.3,0.8,73.8-1.2,88.8C333.4,896.2,331,898.1,328.3,897.7z"/>
</svg>
